<svg xmlns="http://www.w3.org/2000/svg" viewBox="0 0 760 500" font-family="sans-serif">

  <!-- ===== Header: the definition (pool T3B02/T9A03) ===== -->
  <text x="380" y="36" text-anchor="middle" font-size="15" font-weight="bold" fill="currentColor">POLARIZATION = ORIENTATION OF THE ELECTRIC FIELD</text>

  <!-- ===== Definition strip: vertical antenna ===== -->
  <g fill="none" stroke="currentColor" stroke-width="2.2" stroke-linecap="round">
    <line x1="150" y1="135" x2="150" y2="72"/>
    <line x1="138" y1="136" x2="162" y2="136"/>
  </g>
  <g stroke="currentColor" stroke-width="1.1" opacity="0.7" fill="none">
    <line x1="141" y1="136" x2="135" y2="143"/>
    <line x1="150" y1="136" x2="144" y2="143"/>
    <line x1="159" y1="136" x2="153" y2="143"/>
  </g>
  <line x1="178" y1="80" x2="178" y2="128" stroke="currentColor" stroke-width="1.6" fill="none"/>
  <path d="M 178,72 L 173.5,82 L 182.5,82 Z" fill="currentColor" stroke="none"/>
  <path d="M 178,134 L 173.5,124 L 182.5,124 Z" fill="currentColor" stroke="none"/>

  <!-- ===== Definition strip: horizontal antenna ===== -->
  <g fill="none" stroke="currentColor" stroke-width="2.2" stroke-linecap="round">
    <line x1="400" y1="100" x2="482" y2="100"/>
    <line x1="490" y1="100" x2="572" y2="100"/>
  </g>
  <line x1="408" y1="122" x2="564" y2="122" stroke="currentColor" stroke-width="1.6" fill="none"/>
  <path d="M 400,122 L 410,117.5 L 410,126.5 Z" fill="currentColor" stroke="none"/>
  <path d="M 572,122 L 562,117.5 L 562,126.5 Z" fill="currentColor" stroke="none"/>

  <!-- ===== Panel divider ===== -->
  <line x1="390" y1="175" x2="390" y2="455" stroke="currentColor" stroke-width="1.2" stroke-dasharray="4,4" opacity="0.4" fill="none"/>

  <!-- ===== Panel A ground ===== -->
  <line x1="50" y1="430" x2="370" y2="430" stroke="currentColor" stroke-width="2.2" fill="none"/>
  <g stroke="currentColor" stroke-width="1.2" opacity="0.7" fill="none">
    <line x1="70" y1="430" x2="62" y2="440"/>
    <line x1="110" y1="430" x2="102" y2="440"/>
    <line x1="150" y1="430" x2="142" y2="440"/>
    <line x1="190" y1="430" x2="182" y2="440"/>
    <line x1="230" y1="430" x2="222" y2="440"/>
    <line x1="270" y1="430" x2="262" y2="440"/>
    <line x1="310" y1="430" x2="302" y2="440"/>
    <line x1="350" y1="430" x2="342" y2="440"/>
  </g>

  <!-- ===== Panel B ground ===== -->
  <line x1="410" y1="430" x2="730" y2="430" stroke="currentColor" stroke-width="2.2" fill="none"/>
  <g stroke="currentColor" stroke-width="1.2" opacity="0.7" fill="none">
    <line x1="430" y1="430" x2="422" y2="440"/>
    <line x1="470" y1="430" x2="462" y2="440"/>
    <line x1="510" y1="430" x2="502" y2="440"/>
    <line x1="550" y1="430" x2="542" y2="440"/>
    <line x1="590" y1="430" x2="582" y2="440"/>
    <line x1="630" y1="430" x2="622" y2="440"/>
    <line x1="670" y1="430" x2="662" y2="440"/>
    <line x1="710" y1="430" x2="702" y2="440"/>
  </g>

  <!-- ===== Panel A: line of sight ===== -->
  <g fill="none" stroke="currentColor" stroke-width="2.2" stroke-linecap="round">
    <line x1="90" y1="430" x2="90" y2="340"/>
    <line x1="80" y1="430" x2="100" y2="430"/>
    <line x1="300" y1="430" x2="300" y2="340"/>
    <line x1="290" y1="430" x2="310" y2="430"/>
    <line x1="258" y1="402" x2="288" y2="402"/>
    <line x1="302" y1="402" x2="332" y2="402"/>
  </g>
  <line x1="98" y1="344" x2="292" y2="344" stroke="currentColor" stroke-width="2.2" fill="none"/>
  <path d="M 292,344 L 282,339.5 L 282,348.5 Z" fill="currentColor" stroke="none"/>
  <line x1="98" y1="344" x2="288" y2="398" stroke="currentColor" stroke-width="2.2" fill="none"/>
  <path d="M 288,398 L 277.2,399.6 L 279.6,391 Z" fill="currentColor" stroke="none"/>

  <!-- ===== Panel B: skywave ===== -->
  <g fill="none" stroke="currentColor" stroke-width="1.6">
    <line x1="415" y1="230" x2="725" y2="230" stroke-dasharray="8,5"/>
    <line x1="415" y1="250" x2="725" y2="250" stroke-dasharray="8,5"/>
  </g>
  <g fill="none" stroke="currentColor" stroke-width="2.2" stroke-linecap="round">
    <line x1="445" y1="430" x2="445" y2="340"/>
    <line x1="435" y1="430" x2="455" y2="430"/>
    <line x1="658" y1="352" x2="688" y2="352"/>
    <line x1="702" y1="352" x2="732" y2="352"/>
  </g>
  <path d="M 451,346 L 530,262 Q 575,228 620,262 L 692,336" fill="none" stroke="currentColor" stroke-width="2.4"/>
  <path d="M 490.5,304 L 487,314.4 L 480.4,308.2 Z" fill="currentColor" stroke="none"/>
  <path d="M 656,299 L 645.8,294.9 L 652.2,288.7 Z" fill="currentColor" stroke="none"/>
  <ellipse cx="575" cy="240" rx="9" ry="4" transform="rotate(35 575 240)" fill="none" stroke="currentColor" stroke-width="1.6"/>

  <!-- ===== Labels ===== -->
  <g fill="currentColor" stroke="none">
    <text x="200" y="96" font-size="12.5">vertical antenna,</text>
    <text x="200" y="113" font-size="12.5">vertical E field</text>
    <text x="592" y="96" font-size="12.5">horizontal antenna,</text>
    <text x="592" y="113" font-size="12.5">horizontal E field</text>

    <text x="215" y="192" text-anchor="middle" font-size="13.5" font-weight="bold">LINE OF SIGHT (VHF/UHF)</text>
    <text x="575" y="192" text-anchor="middle" font-size="13.5" font-weight="bold">SKYWAVE (HF)</text>

    <text x="90" y="326" text-anchor="middle" font-size="11">TX vertical</text>
    <text x="195" y="330" text-anchor="middle" font-size="11.5">matching antennas</text>
    <text x="312" y="348" font-size="12.5" font-weight="bold">strong</text>
    <text x="170" y="393" text-anchor="middle" font-size="11.5">cross-polarized</text>
    <text x="340" y="406" font-size="12.5" font-weight="bold">weak</text>

    <text x="570" y="220" text-anchor="middle" font-size="10.5" letter-spacing="1.5">IONOSPHERE</text>
    <text x="445" y="326" text-anchor="middle" font-size="11">TX vertical</text>
    <text x="575" y="282" text-anchor="middle" font-size="10.5">polarization gets</text>
    <text x="575" y="296" text-anchor="middle" font-size="10.5">scrambled here</text>
    <text x="695" y="378" text-anchor="middle" font-size="12" font-weight="bold">either orientation</text>
    <text x="695" y="392" text-anchor="middle" font-size="12" font-weight="bold">works</text>

    <text x="380" y="478" text-anchor="middle" font-size="12.5">Line of sight: match the antennas. Sky wave: scrambling means either works.</text>
  </g>
</svg>
